<svg xmlns="http://www.w3.org/2000/svg" width="184.382" height="37.202" viewBox="0 0 184.382 37.202"><defs><style>.a{fill:#ee7522;}.b{fill:#fff;}</style></defs><path class="a" d="M0,0H24.82V6.244H7.4V36.782H0ZM12.121,22.039,8.711,15.218H20.359v6.821Z"/><path class="a" d="M126.5,52.26a13.116,13.116,0,0,1,5.3,1.075,13.736,13.736,0,0,1,7.215,7.215,13.34,13.34,0,0,1,0,10.5A13.736,13.736,0,0,1,131.8,78.26a13.6,13.6,0,0,1-10.6,0,13.736,13.736,0,0,1-7.215-7.215,13.34,13.34,0,0,1,0-10.5,13.736,13.736,0,0,1,7.215-7.215A13.116,13.116,0,0,1,126.5,52.26Zm0,20.832a5.269,5.269,0,0,0,2.44-.577,6.437,6.437,0,0,0,1.994-1.6,7.894,7.894,0,0,0,1.364-2.36,8.3,8.3,0,0,0,.5-2.913,7.991,7.991,0,0,0-.5-2.806,7.223,7.223,0,0,0-1.364-2.308,6.833,6.833,0,0,0-1.994-1.548,5.293,5.293,0,0,0-2.44-.577,5.458,5.458,0,0,0-2.467.577,6.723,6.723,0,0,0-2.021,1.548,7.188,7.188,0,0,0-1.364,2.308,7.947,7.947,0,0,0-.5,2.806,8.252,8.252,0,0,0,.5,2.913,7.829,7.829,0,0,0,1.364,2.36,6.321,6.321,0,0,0,2.021,1.6A5.433,5.433,0,0,0,126.5,73.092Z" transform="translate(-91.03 -42.133)"/><path class="a" d="M277.59,52.26a13.116,13.116,0,0,1,5.3,1.075A13.736,13.736,0,0,1,290.1,60.55a13.34,13.34,0,0,1,0,10.5,13.736,13.736,0,0,1-7.215,7.215,13.6,13.6,0,0,1-10.6,0,13.736,13.736,0,0,1-7.215-7.215,13.34,13.34,0,0,1,0-10.5,13.736,13.736,0,0,1,7.215-7.215A13.116,13.116,0,0,1,277.59,52.26Zm0,20.832a5.269,5.269,0,0,0,2.44-.577,6.437,6.437,0,0,0,1.994-1.6,7.893,7.893,0,0,0,1.364-2.36,8.3,8.3,0,0,0,.5-2.913,7.991,7.991,0,0,0-.5-2.806,7.222,7.222,0,0,0-1.364-2.308,6.833,6.833,0,0,0-1.994-1.548,5.293,5.293,0,0,0-2.44-.577,5.458,5.458,0,0,0-2.467.577,6.723,6.723,0,0,0-2.021,1.548,7.187,7.187,0,0,0-1.364,2.308,7.947,7.947,0,0,0-.5,2.806,8.252,8.252,0,0,0,.5,2.913,7.829,7.829,0,0,0,1.364,2.36,6.321,6.321,0,0,0,2.021,1.6A5.433,5.433,0,0,0,277.59,73.092Z" transform="translate(-212.841 -42.133)"/><path class="a" d="M425.847,43.531a2.737,2.737,0,0,0,.866,2.046,2.871,2.871,0,0,0,2.073.839h5.089V52.5h-5.089a9.836,9.836,0,0,1-3.856-.762,9.735,9.735,0,0,1-3.149-2.1,10.19,10.19,0,0,1-2.126-3.122,9.374,9.374,0,0,1-.787-3.831V34.82H415.09V29h3.779V19.5h6.978ZM433.875,29v5.825h-3.883L426.738,29Z" transform="translate(-334.653 -15.721)"/><path class="b" d="M534.58.27l23.665,34.106V37h-7.66l-16-23.087V37h-7.66V.27Zm16,0h7.66V27.764l-7.66-5.509Z" transform="translate(-424.812 -0.218)"/><path class="b" d="M717.1,52.26a12.987,12.987,0,0,1,5.248,1.075,13.736,13.736,0,0,1,7.215,7.215,13.117,13.117,0,0,1,1.075,5.3,13.522,13.522,0,0,1-.314,2.938l-.052.1H716.945l-3.358-5.352h9.97a7.82,7.82,0,0,0-2.44-3.62A6.091,6.091,0,0,0,717.1,58.5a6.364,6.364,0,0,0-2.676.576,6.956,6.956,0,0,0-2.178,1.543,7.059,7.059,0,0,0-1.444,2.3,7.839,7.839,0,0,0-.525,2.9,7.143,7.143,0,0,0,.473,2.484,7.6,7.6,0,0,0,1.364,2.327,7.834,7.834,0,0,0,2.151,1.752,5.691,5.691,0,0,0,2.833.705,8.192,8.192,0,0,0,2.6-.393,4.86,4.86,0,0,0,2.231-1.758l.052-.052.1.052,6.089,2.678-.1.107a13.138,13.138,0,0,1-4.8,4.128,13.413,13.413,0,0,1-6.166,1.482,13.61,13.61,0,0,1-5.325-1.048,13.4,13.4,0,0,1-4.329-2.885,13.856,13.856,0,0,1-2.913-4.3,12.982,12.982,0,0,1-1.075-5.248,13.117,13.117,0,0,1,1.075-5.3,13.662,13.662,0,0,1,7.242-7.215A13.265,13.265,0,0,1,717.1,52.26Z" transform="translate(-567.142 -42.133)"/><path class="b" d="M865.307,43.531a2.737,2.737,0,0,0,.866,2.046,2.871,2.871,0,0,0,2.073.839h5.089V52.5h-5.089a9.837,9.837,0,0,1-3.856-.762,9.738,9.738,0,0,1-3.149-2.1,10.19,10.19,0,0,1-2.126-3.122,9.374,9.374,0,0,1-.787-3.831V34.82H854.55V29h3.779V19.5h6.978ZM873.335,29v5.825h-3.883L866.2,29Z" transform="translate(-688.953 -15.721)"/></svg>