<?xml version="1.0" encoding="utf-8"?>
<!-- Generator: Adobe Illustrator 23.0.2, SVG Export Plug-In . SVG Version: 6.00 Build 0)  -->
<svg version="1.1" xmlns="http://www.w3.org/2000/svg" xmlns:xlink="http://www.w3.org/1999/xlink" x="0px" y="0px"
	 viewBox="0 0 512 668" style="enable-background:new 0 0 512 668;" xml:space="preserve">
<style type="text/css">
	.st0{fill:none;stroke:#FFFFFF;stroke-width:5;stroke-miterlimit:10;}
</style>
<g id="Background">
</g>
<g id="Objects">
	<g>
		<polygon class="st0" points="509.5,665.5 2.5,665.5 2.5,2.5 509.5,2.5 509.5,334.5 		"/>
		<line class="st0" x1="3" y1="332.5" x2="509" y2="332.5"/>
		<circle class="st0" cx="253.75" cy="332" r="70.95"/>
		<g>
			<rect x="141.5" y="2.5" class="st0" width="229" height="109"/>
			<rect x="194.5" y="2.5" class="st0" width="123" height="58"/>
			<path class="st0" d="M303.52,111.5c-9.78,15.99-27.4,26.66-47.52,26.66c-20.11,0-37.73-10.67-47.51-26.66"/>
			<path class="st0" d="M509.5,30.63c-15.53,0-28.13-12.59-28.13-28.13"/>
			<path class="st0" d="M2.38,30.63c15.53,0,28.13-12.59,28.13-28.13"/>
		</g>
		<g>
			<rect x="141.5" y="556.5" class="st0" width="229" height="109"/>
			<rect x="194.5" y="607.5" class="st0" width="123" height="58"/>
			<path class="st0" d="M303.52,556.16c-9.78-15.99-27.4-26.66-47.52-26.66c-20.11,0-37.73,10.67-47.51,26.66"/>
			<path class="st0" d="M509.5,637.03c-15.53,0-28.13,12.59-28.13,28.13"/>
			<path class="st0" d="M2.38,637.03c15.53,0,28.13,12.59,28.13,28.13"/>
		</g>
	</g>
</g>
</svg>
